<svg xmlns="http://www.w3.org/2000/svg" xmlns:xlink="http://www.w3.org/1999/xlink" version="1.1" x="0px" y="0px" viewBox="0 0 780 440" style="enable-background:new 0 0 780 440;" xml:space="preserve"> <style type="text/css"> .st0{fill:#C2F2BD;} .st1{fill:#B3F2E6;stroke:#002138;stroke-miterlimit:10;} .st2{fill:#FFFFFF;stroke:#162020;stroke-miterlimit:10;} .st3{fill:none;stroke:#162020;stroke-miterlimit:10;} .st4{fill:#2BB656;stroke:#162020;stroke-miterlimit:10;} .st5{fill:#FFFFFF;stroke:#002138;stroke-linejoin:round;stroke-miterlimit:10;} .st6{fill:none;stroke:#000000;stroke-width:1.25;stroke-miterlimit:10;stroke-dasharray:5.014;} .st7{fill:#2BB656;stroke:#002138;stroke-miterlimit:10;} .st8{fill:none;stroke:#002138;stroke-linecap:round;stroke-miterlimit:10;} .st9{fill:none;stroke:#002138;stroke-miterlimit:10;} .st10{fill:#2BB656;stroke:#002138;stroke-linejoin:round;stroke-miterlimit:10;} .st11{fill-rule:evenodd;clip-rule:evenodd;fill:#2BB656;stroke:#002138;stroke-miterlimit:10;} .st12{fill-rule:evenodd;clip-rule:evenodd;fill:#FFFFFF;} </style> <g id="Layer_1"> <rect class="st0" width="780" height="440"></rect> <g> <g> <circle class="st1" cx="570.4" cy="316.7" r="38.7"></circle> </g> <g> <circle class="st2" cx="570.4" cy="316.7" r="21.8"></circle> <ellipse class="st2" cx="570.4" cy="316.7" rx="9.4" ry="21.8"></ellipse> <line class="st3" x1="570.4" y1="338.6" x2="570.4" y2="294.9"></line> <line class="st3" x1="591.7" y1="312" x2="549.1" y2="312"></line> <line class="st3" x1="591.7" y1="321.5" x2="549.1" y2="321.5"></line> <line class="st3" x1="587" y1="302.5" x2="553.9" y2="302.5"></line> <line class="st3" x1="587" y1="331" x2="553.9" y2="331"></line> </g> <rect x="556" y="307.9" class="st4" width="28.9" height="17.6"></rect> <path class="st5" d="M570.6,320l2.7,1.9c0.3,0.2,0.7-0.1,0.6-0.4l-1-3.2c0-0.1,0-0.3,0.1-0.4l2.7-2c0.3-0.2,0.1-0.7-0.2-0.7 l-3.3-0.1c-0.2,0-0.3-0.1-0.3-0.3l-1.1-3.2c-0.1-0.3-0.6-0.3-0.7,0l-1.1,3.2c-0.1,0.1-0.2,0.2-0.3,0.3l-3.3,0.1 c-0.4,0-0.5,0.5-0.2,0.7l2.7,2c0.1,0.1,0.2,0.3,0.1,0.4l-1,3.2c-0.1,0.3,0.3,0.6,0.6,0.4l2.7-1.9 C570.3,319.9,570.5,319.9,570.6,320z"></path> </g> <line class="st6" x1="251.4" y1="137.4" x2="532.1" y2="299.4"></line> <g> <circle class="st1" cx="214.5" cy="316.7" r="38.7"></circle> <g> <polyline class="st7" points="198.1,307.5 231.5,307.5 228.5,323.8 201.4,323.8 "></polyline> <polyline class="st8" points="190.4,303.1 197.3,303.1 202.2,327.8 226.1,327.8 "></polyline> <line class="st9" x1="199.8" y1="315.7" x2="230" y2="315.7"></line> <line class="st9" x1="221.5" y1="307.5" x2="220.2" y2="323.8"></line> <line class="st9" x1="208" y1="307.5" x2="209.3" y2="323.8"></line> <circle class="st2" cx="207.2" cy="335.1" r="3.8"></circle> <circle class="st2" cx="220.9" cy="335.1" r="3.8"></circle> </g> </g> <g> <circle class="st1" cx="214.5" cy="117.4" r="38.7"></circle> <path class="st2" d="M191.3,148.3c17.1,12.9,41.4,9.5,54.3-7.6c-1.8-8-9.8-14.1-30-14.3c-20.3-0.2-29.8,5.8-32.2,13.9 C185.6,143.3,188.3,146,191.3,148.3z"></path> <circle class="st2" cx="214.5" cy="104.5" r="15.5"></circle> <circle class="st3" cx="214.5" cy="117.4" r="38.7"></circle> </g> <path class="st10" d="M240.1,130.9L240.1,130.9l-8.8,8.8l-8.8-8.8l0,0c-1.3-1.1-2.1-2.9-2.1-4.8c0-3.4,2.8-6.2,6.2-6.2 c1.9,0,3.6,0.9,4.8,2.1l0,0l0,0c1.1-1.3,2.9-2.1,4.8-2.1c3.4,0,6.2,2.8,6.2,6.2C242.4,128,241.5,129.8,240.1,130.9z"></path> <g> <circle class="st1" cx="570.4" cy="117.4" r="38.7"></circle> <g> <path class="st7" d="M551.5,107.4v13.7c0,2.7,2.2,4.9,4.9,4.9h1.2l5.4,9.2l5.4-9.2h15.9c2.7,0,4.9-2.2,4.9-4.9v-13.7 c0-2.7-2.2-4.9-4.9-4.9h-28C553.7,102.5,551.5,104.7,551.5,107.4z"></path> <circle class="st2" cx="561.9" cy="114.3" r="3"></circle> <circle class="st2" cx="570.4" cy="114.3" r="3"></circle> <circle class="st2" cx="579" cy="114.3" r="3"></circle> </g> </g> <line class="st6" x1="532.1" y1="137.4" x2="251.4" y2="299.4"></line> <circle class="st11" cx="391.7" cy="218.4" r="80.4"></circle> <g> <g> <path class="st12" d="M393.4,169.1c-25.5,0-46.1,20.6-46.1,46.1c0,8.7,2.4,16.9,6.6,23.8l-8.3,24.7l25.5-8.2 c6.6,3.7,14.2,5.7,22.3,5.7c25.5,0,46.1-20.6,46.1-46.1C439.5,189.7,418.9,169.1,393.4,169.1z M393.4,253.6 c-7.8,0-15.1-2.3-21.1-6.3l-14.8,4.7l4.8-14.3c-4.6-6.3-7.3-14.1-7.3-22.5c0-21.2,17.2-38.4,38.4-38.4 c21.2,0,38.4,17.2,38.4,38.4C431.8,236.4,414.6,253.6,393.4,253.6z M415.1,225.7c-1.2-0.6-6.8-3.7-7.9-4.1 c-1.1-0.4-1.8-0.7-2.7,0.5c-0.8,1.1-3.2,3.7-3.9,4.5c-0.7,0.8-1.4,0.8-2.6,0.2c-1.2-0.6-4.9-2-9.2-6.2c-3.4-3.3-5.6-7.2-6.2-8.4 c-0.6-1.2,0-1.8,0.6-2.4c0.5-0.5,1.2-1.3,1.8-2c0.6-0.7,0.8-1.1,1.3-1.9c0.4-0.8,0.3-1.5,0-2.1c-0.3-0.6-2.4-6.5-3.3-8.9 c-0.9-2.4-1.9-2-2.6-2.1c-0.7,0-1.5-0.2-2.3-0.2c-0.8,0-2.1,0.2-3.2,1.4c-1.1,1.1-4.3,3.9-4.5,9.7c-0.2,5.8,3.8,11.5,4.3,12.4 c0.6,0.8,7.7,13.4,19.4,18.5c11.8,5.2,11.9,3.6,14,3.5c2.2-0.1,7.1-2.6,8.2-5.3c1.1-2.7,1.2-5.1,0.9-5.6 C417,226.6,416.2,226.3,415.1,225.7z"></path> </g> </g> </g> <g id="Layer_2"> </g> </svg>